#!OML:ASF H:\Not Pregnant\Project 1\Capture day 1\Session 1\non-pregnant.ASF
:FULLY-SPECIFIED
:DEGREES
627
root -5.2968 15.9418 34.4884 -170.456 -1.36151 -180.813
lowerback -1.71423 2.25931 1.03077
upperback -6.79301 2.51786 -1.02556
thorax -5.98653 0.955908 -1.70637
lowerneck 19.151 -7.66737 -31.6909
upperneck -4.07511 -20.5697 39.0189
head 3.69199 -13.193 19.4967
rclavicle 2.25683e-014 4.34841e-015
rhumerus -41.6719 -15.3545 -75.3641
rradius 22.5429
rwrist 28.8586
rhand -4.04349 -0.847305
rfingers 7.12502
rthumb 21.7122 -29.6497
lclavicle 2.25683e-014 4.34841e-015
lhumerus -48.7605 -0.743251 82.0491
lradius 32.4406
lwrist 36.1566
lhand -14.7225 -10.0886
lfingers 7.12502
lthumb 11.4324 19.5797
rfemur -10.1599 -0.834865 20.145
rtibia 50.8912
rfoot 8.10586 15.6949
rtoes -29.5645
lfemur -25.8186 -4.37266 -22.0731
ltibia 31.6808
lfoot -14.7133 -13.2717
ltoes -8.64653
628
root -5.28203 15.932 34.5785 -170.266 -1.21093 -180.541
lowerback -1.8922 2.36793 1.28101
upperback -6.87585 2.65401 -0.970353
thorax -5.95909 1.00496 -1.78718
lowerneck 19.1498 -7.65338 -31.6788
upperneck -4.05459 -20.5523 39.0199
head 3.689 -13.1854 19.5002
rclavicle 2.7395e-014 -2.08724e-015
rhumerus -41.496 -14.9037 -75.5877
rradius 22.7342
rwrist 28.6228
rhand -4.00044 -0.854161
rfingers 7.12502
rthumb 21.7535 -29.6518
lclavicle 2.7395e-014 -2.08724e-015
lhumerus -48.9272 -0.756756 82.0515
lradius 32.7919
lwrist 36.2982
lhand -14.6669 -10.0752
lfingers 7.12502
lthumb 11.486 19.5901
rfemur -9.01657 -0.421276 20.5152
rtibia 48.0498
rfoot 8.1832 15.9694
rtoes -29.2063
lfemur -26.6981 -4.42698 -21.6491
ltibia 32.2652
lfoot -14.6709 -13.0325
ltoes -8.99625
629
root -5.2668 15.9214 34.671 -170.063 -1.06789 -180.248
lowerback -2.05261 2.47031 1.55205
upperback -6.96295 2.78126 -0.907732
thorax -5.94531 1.04812 -1.87178
lowerneck 19.1207 -7.6487 -31.675
upperneck -4.03458 -20.5395 39.0203
head 3.69399 -13.1771 19.4999
rclavicle 7.14382e-016 5.49143e-015
rhumerus -41.3009 -14.4289 -75.8271
rradius 22.959
rwrist 28.3522
rhand -3.98486 -0.878093
rfingers 7.12502
rthumb 21.7685 -29.674
lclavicle 7.14382e-016 5.49143e-015
lhumerus -49.0808 -0.765631 82.0609
lradius 33.1411
lwrist 36.4469
lhand -14.6199 -10.1066
lfingers 7.12502
lthumb 11.5314 19.5562
rfemur -7.92319 -0.0420354 20.8961
rtibia 45.3134
rfoot 7.86522 16.3953
rtoes -29.0076
lfemur -27.6088 -4.49274 -21.1916
ltibia 32.857
lfoot -14.6169 -12.7848
ltoes -9.36939
630
root -5.2514 15.9122 34.7656 -169.845 -0.913385 -179.936
lowerback -2.23115 2.57611 1.84897
upperback -7.03256 2.91339 -0.846084
thorax -5.90037 1.09329 -1.97017
lowerneck 19.0742 -7.65152 -31.6656
upperneck -4.0304 -20.5274 39.0325
head 3.69956 -13.1684 19.502
rclavicle -2.60874e-014 -2.5842e-015
rhumerus -41.0628 -13.9569 -76.0837
rradius 23.2132
rwrist 28.0645
rhand -4.01185 -0.885056
rfingers 7.12502
rthumb 21.7426 -29.6839
lclavicle -2.60874e-014 -2.5842e-015
lhumerus -49.1886 -0.786557 82.0847
lradius 33.48
lwrist 36.628
lhand -14.611 -10.1743
lfingers 7.12502
lthumb 11.54 19.488
rfemur -6.92234 0.276855 21.2776
rtibia 42.8082
rfoot 6.99455 16.9312
rtoes -29.1724
lfemur -28.5289 -4.56641 -20.705
ltibia 33.4232
lfoot -14.5391 -12.5141
ltoes -9.78444
631
root -5.23571 15.9039 34.8625 -169.62 -0.758052 -179.61
lowerback -2.3906 2.6777 2.1623
upperback -7.10529 3.03919 -0.77785
thorax -5.86874 1.13408 -2.07092
lowerneck 19.0159 -7.64908 -31.6688
upperneck -4.01632 -20.5083 39.044
head 3.70858 -13.1551 19.5069
rclavicle -2.86685e-014 -5.06901e-015
rhumerus -40.8076 -13.4552 -76.3551
rradius 23.4982
rwrist 27.7242
rhand -4.05159 -0.900805
rfingers 7.12502
rthumb 21.7044 -29.7041
lclavicle -2.86685e-014 -5.06901e-015
lhumerus -49.2926 -0.808893 82.1234
lradius 33.816
lwrist 36.85
lhand -14.6513 -10.2953
lfingers 7.12502
lthumb 11.501 19.3692
rfemur -6.02796 0.493873 21.6662
rtibia 40.6153
rfoot 5.48098 17.4691
rtoes -29.7454
lfemur -29.4442 -4.65456 -20.1894
ltibia 33.9461
lfoot -14.4258 -12.2275
ltoes -10.2384
632
root -5.21948 15.8983 34.9618 -169.39 -0.600211 -179.274
lowerback -2.52527 2.7774 2.48562
upperback -7.17632 3.16257 -0.708912
thorax -5.84839 1.17299 -2.17692
lowerneck 18.9387 -7.64939 -31.6725
upperneck -3.99449 -20.4886 39.0548
head 3.72287 -13.1398 19.5092
rclavicle 1.95368e-015 4.5969e-015
rhumerus -40.5316 -12.9284 -76.6475
rradius 23.8211
rwrist 27.3161
rhand -4.11286 -0.944754
rfingers 7.12502
rthumb 21.6456 -29.7548
lclavicle 1.95368e-015 4.5969e-015
lhumerus -49.3632 -0.828721 82.161
lradius 34.1332
lwrist 37.0673
lhand -14.7113 -10.3929
lfingers 7.12502
lthumb 11.4432 19.2748
rfemur -5.28551 0.599925 22.0592
rtibia 38.7602
rfoot 3.51883 17.8122
rtoes -30.4156
lfemur -30.3433 -4.75726 -19.6496
ltibia 34.4102
lfoot -14.2719 -11.9243
ltoes -10.7451
633
root -5.20265 15.8936 35.0638 -169.16 -0.439566 -178.939
lowerback -2.62778 2.87062 2.80389
upperback -7.24801 3.27768 -0.637963
thorax -5.84724 1.20767 -2.27887
lowerneck 18.8552 -7.64704 -31.6821
upperneck -3.96457 -20.4644 39.0604
head 3.73851 -13.1208 19.5104
rclavicle -8.69062e-015 -3.45388e-015
rhumerus -40.2405 -12.384 -76.9472
rradius 24.1694
rwrist 26.8601
rhand -4.19107 -0.98974
rfingers 7.12502
rthumb 21.5705 -29.8085
lclavicle -8.69062e-015 -3.45388e-015
lhumerus -49.4146 -0.835755 82.1975
lradius 34.4329
lwrist 37.2754
lhand -14.7796 -10.4836
lfingers 7.12502
lthumb 11.3773 19.1878
rfemur -4.69043 0.588684 22.4497
rtibia 37.1947
rfoot 1.34741 17.91
rtoes -30.9537
lfemur -31.2222 -4.86938 -19.0996
ltibia 34.8195
lfoot -14.0815 -11.6098
ltoes -11.2857
634
root -5.18519 15.8894 35.1684 -168.937 -0.270304 -178.609
lowerback -2.69023 2.96177 3.1167
upperback -7.31656 3.39175 -0.570545
thorax -5.86511 1.24194 -2.38289
lowerneck 18.7665 -7.64883 -31.682
upperneck -3.93673 -20.4397 39.0611
head 3.75227 -13.1004 19.5061
rclavicle -3.28709e-014 -2.70844e-015
rhumerus -39.929 -11.8533 -77.2463
rradius 24.5262
rwrist 26.3812
rhand -4.29886 -1.04004
rfingers 7.12502
rthumb 21.4669 -29.8706
lclavicle -3.28709e-014 -2.70844e-015
lhumerus -49.4356 -0.844018 82.2309
lradius 34.7042
lwrist 37.4738
lhand -14.8243 -10.5785
lfingers 7.12502
lthumb 11.3342 19.0952
rfemur -4.22248 0.481925 22.8394
rtibia 35.8333
rfoot -0.741159 17.7819
rtoes -31.0279
lfemur -32.0701 -4.98664 -18.5412
ltibia 35.1709
lfoot -13.8525 -11.2835
ltoes -11.8179
635
root -5.16705 15.886 35.2759 -168.726 -0.0895426 -178.284
lowerback -2.70904 2.24711 3.45665
upperback -7.3866 3.68408 -0.423961
thorax -5.93421 1.90119 -2.48462
lowerneck 18.6956 -7.64364 -31.6779
upperneck -3.92044 -20.4039 39.0593
head 3.75422 -13.0754 19.5046
rclavicle -2.97183e-014 -9.96408e-015
rhumerus -39.6102 -11.343 -77.5333
rradius 24.8872
rwrist 25.9081
rhand -4.44848 -1.08547
rfingers 7.12502
rthumb 21.3232 -29.9323
lclavicle -2.97183e-014 -9.96408e-015
lhumerus -49.4381 -0.847741 82.2617
lradius 34.947
lwrist 37.6625
lhand -14.8484 -10.6751
lfingers 7.12502
lthumb 11.311 18.9999
rfemur -3.85116 0.315898 23.2301
rtibia 34.577
rfoot -2.53847 17.5032
rtoes -30.6804
lfemur -32.8819 -5.10035 -17.9784
ltibia 35.4653
lfoot -13.5873 -10.9541
ltoes -12.3063
